<?xml version="1.0" encoding="UTF-8" standalone="no"?>
<svg
   xmlns:dc="http://purl.org/dc/elements/1.1/"
   xmlns:cc="http://creativecommons.org/ns#"
   xmlns:rdf="http://www.w3.org/1999/02/22-rdf-syntax-ns#"
   xmlns:svg="http://www.w3.org/2000/svg"
   xmlns="http://www.w3.org/2000/svg"
   viewBox="0 0 280 105.33333"
   height="105.33333"
   width="280"
   xml:space="preserve"
   id="svg2"
   version="1.1"><metadata
     id="metadata8"><rdf:RDF><cc:Work
         rdf:about=""><dc:format>image/svg+xml</dc:format><dc:type
           rdf:resource="http://purl.org/dc/dcmitype/StillImage" /></cc:Work></rdf:RDF></metadata><defs
     id="defs6"><linearGradient
       id="linearGradient28"
       spreadMethod="pad"
       gradientTransform="matrix(0,81,81,0,105,-1)"
       gradientUnits="userSpaceOnUse"
       y2="0"
       x2="1"
       y1="0"
       x1="0"><stop
         id="stop24"
         offset="0"
         style="stop-opacity:1;stop-color:#d3af55" /><stop
         id="stop26"
         offset="1"
         style="stop-opacity:1;stop-color:#c38d3b" /></linearGradient><linearGradient
       id="linearGradient48"
       spreadMethod="pad"
       gradientTransform="matrix(0,81,81,0,105,-1)"
       gradientUnits="userSpaceOnUse"
       y2="0"
       x2="1"
       y1="0"
       x1="0"><stop
         id="stop44"
         offset="0"
         style="stop-opacity:1;stop-color:#d3af55" /><stop
         id="stop46"
         offset="1"
         style="stop-opacity:1;stop-color:#c38d3b" /></linearGradient><linearGradient
       id="linearGradient68"
       spreadMethod="pad"
       gradientTransform="matrix(0,81,81,0,105,-1)"
       gradientUnits="userSpaceOnUse"
       y2="0"
       x2="1"
       y1="0"
       x1="0"><stop
         id="stop64"
         offset="0"
         style="stop-opacity:1;stop-color:#d3af55" /><stop
         id="stop66"
         offset="1"
         style="stop-opacity:1;stop-color:#c38d3b" /></linearGradient><linearGradient
       id="linearGradient88"
       spreadMethod="pad"
       gradientTransform="matrix(0,81,81,0,105,-1)"
       gradientUnits="userSpaceOnUse"
       y2="0"
       x2="1"
       y1="0"
       x1="0"><stop
         id="stop84"
         offset="0"
         style="stop-opacity:1;stop-color:#d3af55" /><stop
         id="stop86"
         offset="1"
         style="stop-opacity:1;stop-color:#c38d3b" /></linearGradient><linearGradient
       id="linearGradient108"
       spreadMethod="pad"
       gradientTransform="matrix(0,81,81,0,105,-1)"
       gradientUnits="userSpaceOnUse"
       y2="0"
       x2="1"
       y1="0"
       x1="0"><stop
         id="stop104"
         offset="0"
         style="stop-opacity:1;stop-color:#d3af55" /><stop
         id="stop106"
         offset="1"
         style="stop-opacity:1;stop-color:#c38d3b" /></linearGradient><linearGradient
       id="linearGradient128"
       spreadMethod="pad"
       gradientTransform="matrix(0,81,81,0,105,-1)"
       gradientUnits="userSpaceOnUse"
       y2="0"
       x2="1"
       y1="0"
       x1="0"><stop
         id="stop124"
         offset="0"
         style="stop-opacity:1;stop-color:#d3af55" /><stop
         id="stop126"
         offset="1"
         style="stop-opacity:1;stop-color:#c38d3b" /></linearGradient></defs><g
     transform="matrix(1.3333333,0,0,-1.3333333,0,105.33333)"
     id="g10"><g
       id="g12"><g
         id="g14"><g
           id="g20"><g
             id="g22"><path
               id="path30"
               style="fill:url(#linearGradient28);stroke:none"
               d="m 30.309,64.915 c -0.636,0 -1.39,0 -2.202,0.058 v 0 c -0.695,0 -0.868,0 -0.868,-0.347 v 0 c 0,-0.466 -0.291,-1.393 -1.218,-3.536 v 0 C 23.411,55.002 21.094,50.191 19.527,47.64 v 0 c -0.233,-0.466 -0.29,-0.466 -0.522,0 v 0 c -1.97,3.71 -4.29,8.464 -6.376,13.159 v 0 c -0.521,1.217 -1.043,2.841 -0.986,3.827 v 0 c 0.058,0.289 -0.057,0.347 -0.579,0.289 v 0 h -2.26 c -1.333,0 -2.725,0.174 -4.639,0.174 v 0 c -0.579,0 -0.522,-0.523 0,-0.696 v 0 C 5.556,63.929 7.123,63.41 7.529,62.307 v 0 C 7.875,61.09 7.76,59.466 7.413,55.871 v 0 C 7.238,53.901 6.889,51.697 6.542,48.685 v 0 C 6.079,44.916 5.613,42.655 4.63,42.072 v 0 C 3.876,41.553 3.121,41.148 2.426,40.913 v 0 c -0.464,-0.174 -0.522,-0.75 0.175,-0.75 v 0 c 1.275,0 2.724,0.172 3.883,0.172 v 0 c 1.622,0 3.073,-0.172 4.348,-0.172 v 0 c 0.811,0 0.811,0.519 0.35,0.75 v 0 l -0.93,0.409 c -1.855,0.809 -2.203,1.39 -1.913,6.434 v 0 c 0.289,5.159 0.696,9.159 0.87,11.477 v 0 c 0.057,0.639 0.23,0.697 0.521,0.057 v 0 c 2.726,-6.26 5.797,-12.925 7.305,-17.159 v 0 c 0.348,-0.983 0.637,-1.392 0.926,-1.392 v 0 c 0.232,0 0.583,0.525 1.044,1.392 v 0 c 0.522,1.101 0.754,1.625 1.045,2.318 v 0 c 2.55,5.915 4.985,10.958 7.246,15.655 v 0 c 0.231,0.462 0.463,0.345 0.463,0 v 0 c 0.116,-6.319 0.173,-10.726 0.116,-13.681 v 0 c -0.059,-1.974 -0.116,-3.191 -0.289,-3.884 v 0 c -0.174,-0.697 -1.103,-1.217 -2.147,-1.626 v 0 c -0.52,-0.231 -0.577,-0.75 0.234,-0.75 v 0 c 1.797,0 2.55,0.172 4,0.172 v 0 c 1.738,0 3.013,-0.172 5.505,-0.172 v 0 c 0.638,0 0.638,0.576 -0.057,0.75 v 0 c -1.797,0.351 -2.724,0.87 -3.13,2.03 v 0 c -0.349,1.045 -0.465,3.306 -0.58,5.448 v 0 C 31.238,51.755 31.18,56.278 31.18,59.29 v 0 c 0,1.393 -0.058,2.553 0.405,3.306 v 0 c 0.463,0.814 1.566,1.564 2.956,1.74 v 0 c 0.637,0.057 0.637,0.753 -0.057,0.753 v 0 c -1.509,0 -2.842,-0.174 -4.175,-0.174" /></g></g></g></g><g
       id="g32"><g
         id="g34"><g
           id="g40"><g
             id="g42"><path
               id="path50"
               style="fill:url(#linearGradient48);stroke:none"
               d="M 57.316,64.335 56.389,63.234 C 56.04,62.827 55.868,62.249 55.172,60.625 v 0 c -1.681,-4.174 -3.826,-9.564 -6.143,-14.9 v 0 c -0.87,-1.968 -1.8,-3.301 -2.494,-3.825 v 0 c -0.466,-0.347 -1.276,-0.752 -2.26,-0.987 v 0 c -0.522,-0.116 -0.465,-0.751 0.173,-0.751 v 0 c 1.218,0 2.551,0.173 3.825,0.173 v 0 c 1.564,0 2.782,-0.173 4.87,-0.173 v 0 c 0.638,0 0.696,0.635 0.174,0.751 v 0 c -1.218,0.293 -1.971,0.582 -2.319,0.987 v 0 c -0.578,0.638 -0.405,1.741 -0.116,2.78 v 0 c 0.464,1.916 1.044,3.249 1.217,3.711 v 0 c 0.115,0.293 0.289,0.409 0.58,0.466 v 0 c 0.234,0.058 0.695,0.116 3.479,0.116 v 0 c 3.13,0 3.535,0 3.884,-0.058 v 0 c 0.348,-0.058 0.464,-0.231 0.637,-0.755 v 0 c 0.813,-1.911 1.507,-4 1.682,-5.1 v 0 c 0.231,-1.219 0,-1.738 -1.855,-2.263 v 0 c -0.464,-0.115 -0.407,-0.635 0.231,-0.635 v 0 c 1.739,0 2.841,0.173 4.29,0.173 v 0 c 1.508,0 2.726,-0.173 4.928,-0.173 v 0 c 0.695,0 0.695,0.578 0.175,0.751 v 0 c -2.204,0.64 -3.017,0.987 -3.886,3.017 v 0 c -2.957,6.607 -5.507,15.187 -6.783,19.362 v 0 c -0.288,0.926 -0.288,1.275 -0.288,1.738 v 0 c 0,0.347 -0.115,0.581 -0.465,0.581 v 0 c -0.291,0 -0.752,-0.523 -1.392,-1.276 M 53.547,51.119 c -0.345,0.058 -0.289,0.404 -0.056,1.042 v 0 c 1.216,3.361 2.088,5.45 2.898,7.187 v 0 c 0.349,0.813 0.522,0.813 0.638,0.351 v 0 c 0.638,-2.088 1.101,-3.48 2.377,-7.362 v 0 c 0.231,-0.698 0.231,-1.103 0.057,-1.16 v 0 c -0.288,-0.116 -0.695,-0.174 -3.012,-0.174 v 0 c -2.377,0 -2.668,0.058 -2.902,0.116" /></g></g></g></g><g
       id="g52"><g
         id="g54"><g
           id="g60"><g
             id="g62"><path
               id="path70"
               style="fill:url(#linearGradient68);stroke:none"
               d="m 115.567,65.435 c 0,-2.434 -0.346,-4.753 -0.346,-5.274 v 0 c 0,-0.638 0.635,-0.753 0.809,-0.173 v 0 c 0.233,0.753 0.812,1.912 1.683,2.434 v 0 c 1.333,0.696 5.102,0.636 6.261,0.636 v 0 c 0.751,0 0.869,-0.173 0.869,-1.158 v 0 c 0,-0.464 0.115,-1.797 0.115,-5.911 v 0 -5.741 c 0,-4.35 -0.233,-6.144 -0.349,-6.958 v 0 c -0.172,-1.564 -1.794,-1.795 -3.824,-2.377 v 0 c -0.579,-0.174 -0.579,-0.751 0.114,-0.751 v 0 c 2.378,0 3.653,0.173 5.392,0.173 v 0 c 2.262,0 3.77,-0.173 5.739,-0.173 v 0 c 0.755,0 0.813,0.577 0.233,0.751 v 0 c -2.262,0.755 -3.246,0.986 -3.537,2.902 v 0 c -0.173,1.39 -0.173,2.838 -0.173,6.722 v 0 5.51 c 0,3.825 0.115,5.853 0.232,6.375 v 0 c 0.059,0.463 0.116,0.636 0.868,0.636 v 0 c 2.725,0 4.059,-0.173 5.045,-0.404 v 0 c 1.449,-0.405 1.854,-1.391 2.259,-2.435 v 0 c 0.233,-0.52 0.756,-0.405 0.813,0.115 v 0 c 0.115,2.146 0.115,3.653 0.753,5.218 v 0 c 0.116,0.407 -0.29,0.58 -0.638,0.35 v 0 c -0.752,-0.524 -1.854,-0.871 -2.896,-0.929 v 0 c -0.813,0 -2.03,-0.058 -4.177,-0.058 v 0 h -7.997 c -3.307,0 -4.466,0.058 -5.044,0.231 v 0 c -0.64,0.174 -1.102,0.347 -1.451,0.698 v 0 c -0.134,0.133 -0.276,0.207 -0.401,0.207 v 0 c -0.199,0 -0.352,-0.187 -0.352,-0.616" /></g></g></g></g><g
       id="g72"><g
         id="g74"><g
           id="g80"><g
             id="g82"><path
               id="path90"
               style="fill:url(#linearGradient88);stroke:none"
               d="m 158.214,65.211 c -0.184,0 -0.373,-0.001 -0.565,-0.007 v 0 c -3.709,0 -8.406,-0.637 -9.219,-0.753 v 0 c -0.693,-0.116 -0.751,-0.696 0,-0.754 v 0 c 1.102,-0.115 2.377,-0.288 2.784,-0.697 v 0 c 0.175,-0.23 0.349,-0.519 0.464,-1.275 v 0 c 0.058,-0.984 0.231,-2.377 0.231,-4.461 v 0 -9.104 c 0,-2.262 -0.173,-3.71 -0.231,-4.519 v 0 c -0.231,-1.684 -0.755,-2.146 -2.958,-2.728 v 0 c -0.637,-0.173 -0.521,-0.751 0.118,-0.751 v 0 c 1.622,0 3.419,0.173 5.159,0.173 v 0 c 1.68,0 3.362,-0.173 4.928,-0.173 v 0 c 0.694,0 0.694,0.578 0.057,0.751 v 0 c -2.549,0.698 -2.956,1.217 -3.305,3.075 v 0 c -0.116,0.692 -0.174,1.332 -0.174,3.186 v 0 2.437 c 0,1.101 0.058,1.217 0.347,1.217 v 0 c 0.929,0 1.857,0.116 2.669,0.175 v 0 c 0.637,0.058 1.042,-0.059 1.566,-1.159 v 0 c 1.737,-3.364 3.246,-6.087 5.389,-8.117 v 0 c 1.333,-1.16 3.537,-1.854 5.684,-1.854 v 0 c 1.216,0 2.201,0.231 2.434,0.347 v 0 c 0.174,0.058 0.115,0.404 -0.118,0.462 v 0 c -0.23,0.058 -1.74,0.466 -3.652,2.03 v 0 c -2.028,1.622 -4.867,5.274 -6.84,9.391 v 0 c -0.231,0.523 -0.116,0.696 0.173,0.869 v 0 l 1.16,0.754 c 1.044,0.637 2.435,2.493 2.435,4.929 v 0 c 0,1.642 -0.387,6.556 -8.534,6.556 v 0 c -0.001,0 -0.001,0 -0.002,0 m -2.188,-12.47 c -0.465,0.058 -0.523,0.231 -0.523,0.871 v 0 5.621 c 0,2.668 0.058,3.421 0.174,3.767 v 0 c 0.116,0.409 0.233,0.582 1.044,0.582 v 0 c 4.057,0 6.376,-3.074 6.376,-6.551 v 0 c 0,-3.305 -2.492,-4.349 -4.405,-4.349 v 0 c -1.215,0 -1.913,0 -2.666,0.059" /></g></g></g></g><g
       id="g92"><g
         id="g94"><g
           id="g100"><g
             id="g102"><path
               id="path110"
               style="fill:url(#linearGradient108);stroke:none"
               d="m 193.816,64.335 -0.926,-1.101 c -0.349,-0.407 -0.522,-0.985 -1.218,-2.609 v 0 c -1.681,-4.174 -3.826,-9.564 -6.145,-14.9 v 0 c -0.871,-1.968 -1.797,-3.301 -2.492,-3.825 v 0 c -0.465,-0.347 -1.276,-0.752 -2.262,-0.987 v 0 c -0.522,-0.116 -0.462,-0.751 0.173,-0.751 v 0 c 1.218,0 2.55,0.173 3.826,0.173 v 0 c 1.567,0 2.783,-0.173 4.87,-0.173 v 0 c 0.64,0 0.697,0.635 0.172,0.751 v 0 c -1.214,0.293 -1.968,0.582 -2.316,0.987 v 0 c -0.58,0.638 -0.407,1.741 -0.116,2.78 v 0 c 0.464,1.916 1.042,3.249 1.218,3.711 v 0 c 0.116,0.293 0.288,0.409 0.579,0.466 v 0 c 0.232,0.058 0.696,0.116 3.479,0.116 v 0 c 3.129,0 3.536,0 3.884,-0.058 v 0 c 0.347,-0.058 0.462,-0.231 0.634,-0.755 v 0 c 0.814,-1.911 1.51,-4 1.685,-5.1 v 0 c 0.232,-1.219 0,-1.738 -1.857,-2.263 v 0 c -0.462,-0.115 -0.404,-0.635 0.232,-0.635 v 0 c 1.741,0 2.843,0.173 4.291,0.173 v 0 c 1.506,0 2.724,-0.173 4.928,-0.173 v 0 c 0.694,0 0.694,0.578 0.173,0.751 v 0 c -2.204,0.64 -3.015,0.987 -3.883,3.017 v 0 c -2.958,6.607 -5.509,15.187 -6.785,19.362 v 0 c -0.289,0.926 -0.289,1.275 -0.289,1.738 v 0 c 0,0.347 -0.115,0.581 -0.463,0.581 v 0 c -0.291,0 -0.754,-0.523 -1.392,-1.276 m -3.768,-13.216 c -0.349,0.058 -0.291,0.404 -0.057,1.042 v 0 c 1.217,3.361 2.086,5.45 2.899,7.187 v 0 c 0.346,0.813 0.52,0.813 0.635,0.351 v 0 c 0.64,-2.088 1.102,-3.48 2.377,-7.362 v 0 c 0.233,-0.698 0.233,-1.103 0.058,-1.16 v 0 c -0.289,-0.116 -0.693,-0.174 -3.013,-0.174 v 0 c -2.377,0 -2.665,0.058 -2.899,0.116" /></g></g></g></g><g
       id="g112"><g
         id="g114"><g
           id="g120"><g
             id="g122"><path
               id="path130"
               style="fill:url(#linearGradient128);stroke:none"
               d="m 59.202,76.976 c -1.968,-0.73 -3.531,-2.61 -4.391,-4.632 v 0 c -0.132,-0.275 -0.339,-1.882 0.969,0.722 v 0 c 1.505,2.773 6.236,3.318 9.609,2.253 v 0 c 3.16,-0.996 4.436,-1.936 6.961,-3.636 v 0 c 3.598,-2.422 6.133,-4.956 8.506,-7.234 v 0 c 0.499,-0.481 1.119,-1.186 1.646,-1.832 v 0 c 0.463,-0.631 0.463,-1.152 0.52,-2.134 v 0 c 0.058,-0.751 0.058,-1.44 0.058,-2.078 v 0 -6.001 c 0,-4.273 -0.227,-7.909 -0.519,-9.007 v 0 c -0.286,-0.92 -1.154,-1.614 -2.077,-1.96 v 0 l -1.213,-0.463 c -0.516,-0.23 -0.576,-0.746 0.115,-0.746 v 0 c 1.387,0 3.057,0.169 4.676,0.169 v 0 c 1.614,0 3.116,-0.169 4.499,-0.169 v 0 c 0.753,0 0.753,0.462 0.117,0.746 v 0 l -1.5,0.579 c -1.214,0.519 -2.306,1.271 -2.306,8.08 v 0 4.907 c 0,2.538 0,3.578 0.055,4.329 v 0 c 0.055,0.807 0.172,0.807 0.523,0.463 v 0 c 3.156,-3.549 19.076,-21.927 19.076,-21.927 v 0 c 7.592,-8.34 17.41,-18.91 25.613,-25.314 v 0 C 138.445,5.602 143.41,2.426 151.351,0.737 v 0 C 153.652,0.249 155.912,0.004 158.106,0 v 0 h 0.085 c 9.681,0.014 18.075,4.755 23.127,14.241 v 0 c 1.027,1.939 -0.318,0.536 -0.799,-0.331 v 0 C 173.265,0.844 155.095,1.15 143.566,7.654 v 0 c -4.24,2.389 -5.985,3.326 -13.174,9.356 v 0 c -7.078,6.232 -13.694,12.344 -28.076,28.567 v 0 c -0.01,0.829 -0.018,1.741 -0.018,2.784 v 0 4.157 c 0,3.809 0.29,6.868 0.577,8.543 v 0 c 0.404,2.079 1.5,2.654 2.829,3.227 v 0 c 0.634,0.236 0.634,0.755 -0.174,0.755 v 0 c -1.155,0 -2.537,-0.173 -4.04,-0.173 v 0 c -1.73,0 -3.404,0.173 -4.967,0.173 v 0 c -0.686,0 -0.686,-0.635 -0.113,-0.755 v 0 c 2.829,-0.745 3.465,-1.209 3.754,-3.92 v 0 c 0.231,-2.134 0.402,-3.985 0.402,-7.561 v 0 -5.3 C 98.997,49.241 89.543,60.516 87.329,62.744 v 0 c -3.7,3.731 -8.206,8.486 -13.762,11.923 v 0 c -3.012,1.862 -6.519,3.079 -9.93,3.079 v 0 c -1.515,0 -3.009,-0.24 -4.435,-0.77" /></g></g></g></g></g></svg>