<svg id="Layer_1" data-name="Layer 1" xmlns="http://www.w3.org/2000/svg" viewBox="0 0 460 82"><defs><style>.cls-1{fill:#0071b9;}.cls-2{fill:#393a36;}.cls-3{fill:#373a36;}.cls-4{fill:none;}</style></defs><path class="cls-1" d="M56.29,47.71l.07,0c-.17-.14-.26-.23-.21-.65h0a25.92,25.92,0,0,0,.23-3.31,26.25,26.25,0,0,0-1.25-8h0c-.1-.32-.13-.39.22-.69h0a7,7,0,0,0-7.65-11.44h0c-.4.19-.53.1-.82-.15l0,0A26.19,26.19,0,0,0,30,17.47l-.76,0h0c-.55,0-.63-.11-.81-.43l0,.07a4.83,4.83,0,0,0-8.92,2.1v0c0,.32-.06.5-.38.65h0A26.44,26.44,0,0,0,4.81,36.3h0c-.1.34-.23.41-.54.48H4.17A5.41,5.41,0,0,0,3.53,47.2a.61.61,0,0,1,.49.61H4A26.15,26.15,0,0,0,8.65,59.14,27.34,27.34,0,0,0,11,62a26.38,26.38,0,0,0,11,6.86,25.48,25.48,0,0,0,3.15.8A26.29,26.29,0,0,0,53.88,54.93h0a.66.66,0,0,1,.65-.47h-.06a3.83,3.83,0,0,0,1.81-6.76ZM45.92,35.15h0c.25.22.33.34.16.65a46.91,46.91,0,0,1-4,5.73c-.17.18-.3.21-.72,0h0a51.14,51.14,0,0,0-9.08-2.73h0c-.44-.09-.5-.12-.56-.69h0a49.56,49.56,0,0,0-1.21-6.72h0c-.09-.37-.06-.45.21-.52a48.19,48.19,0,0,1,8.28-.72q2.13,0,4.26.21c.22,0,.31.11.39.56h0a6.79,6.79,0,0,0,1.1,2.92A6.89,6.89,0,0,0,45.92,35.15ZM34,49.43a.42.42,0,0,1-.57-.07l0,0a6.26,6.26,0,0,0-1.22-.8h0c-.35-.16-.35-.23-.3-.7v0a51.87,51.87,0,0,0,.15-5.57v0c0-.32,0-.42.31-.38a46.87,46.87,0,0,1,6.93,2.07c.25.11.29.25.12.45A48.35,48.35,0,0,1,34,49.43ZM44.64,25.76c.24.23.21.37,0,.63h0c-.12.2-.23.4-.33.61v0c-.12.21,0,.42-.71.36h0c-1.52-.14-3-.22-4.57-.22a51.75,51.75,0,0,0-9,.81h0c-.39.06-.51,0-.62-.37v0c-.47-1.37-1-2.72-1.58-4.06h0c-.11-.26-.14-.33.1-.59l0,0,0,0h0A4.86,4.86,0,0,0,29,21h0c.1-.3.11-.41.49-.43l.5,0A23.12,23.12,0,0,1,44.64,25.76ZM28.85,47.65c0,.23-.12.34-.5.43h0a6,6,0,0,0-2.07.81h0l-.06,0a.41.41,0,0,0-.11.07c-.31.18-.38.12-.76-.14h0a50.66,50.66,0,0,0-13-6.5h0c-.42-.14-.43-.25-.14-.34a47.25,47.25,0,0,1,16.45-.66c.19,0,.31.12.34.42A46.06,46.06,0,0,1,28.85,47.65ZM27.12,31.72c.21,0,.32,0,.41.26a48,48,0,0,1,1.13,5.93c0,.32-.12.31-.52.26h0a52,52,0,0,0-5.88-.35A50.66,50.66,0,0,0,12,38.89h0c-.42.09-.54.08-.31-.11A47.7,47.7,0,0,1,27.12,31.72Zm-6.82-9c.18-.07.33,0,.56.23v0a4.77,4.77,0,0,0,3.57,1.56h0c.35,0,.53,0,.68.38.48,1.11.92,2.22,1.32,3.35.13.41-.06.48-.44.57h0A50.65,50.65,0,0,0,8.51,37.26h0c-.28.21-.42.17-.57.09s-.15-.13-.1-.36A23.31,23.31,0,0,1,20.3,22.73ZM7.12,47.58c0-.28,0-.39.28-.49h0a5.45,5.45,0,0,0,2.3-1.81h0c.2-.3.33-.37.66-.29A47.75,47.75,0,0,1,23.6,51.43c.27.23.19.4.08.7v0a6.3,6.3,0,0,0-.35,2,5.55,5.55,0,0,0,.06.82v0c.07.38,0,.58-.3.74a48,48,0,0,1-10.52,3,.63.63,0,0,1-.6-.29A23.1,23.1,0,0,1,7.12,47.58ZM23.7,65.82a.34.34,0,0,1-.44.19,23,23,0,0,1-8.07-4.37c-.17-.17-.13-.28.18-.34h-.06a51.32,51.32,0,0,0,9.1-2.81h0c.41-.17.6-.13.77.05h0a5.9,5.9,0,0,0,.86.71h0c.15.1.33.22.27.49A48,48,0,0,1,23.7,65.82Zm3.34,1c-.27-.06-.28-.2-.14-.49l0,0a51,51,0,0,0,2.32-5.54h0c.16-.46.27-.49.63-.5h0a6.08,6.08,0,0,0,2.29-.56h0c.27-.14.49-.19.73,0,1,1.16,1.93,2.36,2.82,3.63.47.67.91,1.36,1.34,2.06.15.24.17.37-.08.47A23.41,23.41,0,0,1,30,67,24.61,24.61,0,0,1,27,66.84Zm13.49-2.32c-.34.15-.46.08-.67-.27h0c-.52-.86-1.07-1.72-1.65-2.56a49.57,49.57,0,0,0-3.07-3.95h0c-.29-.32-.26-.45-.12-.72h0l0,0h0a6.05,6.05,0,0,0,.69-2.81,6.16,6.16,0,0,0-.19-1.5h0c-.09-.33-.12-.43.17-.65h0a50.9,50.9,0,0,0,6.74-6.14L42.4,46c.21-.23.37-.36.68-.24a48.81,48.81,0,0,1,6.77,4c.21.18.2.32.16.62h0a3.85,3.85,0,0,0,.89,2.86h0a.47.47,0,0,1,.12.63A23.33,23.33,0,0,1,40.53,64.52Zm12.57-18c0,.22-.09.37-.33.43h0a4.44,4.44,0,0,0-.61.22l0,0c-.24.15-.36.13-.6,0h0a52.27,52.27,0,0,0-6.34-3.82h0a.38.38,0,0,1-.15-.6l0,0a51.22,51.22,0,0,0,3.77-5.6h0a.5.5,0,0,1,.61-.27l-.05,0a6.85,6.85,0,0,0,2.39,0l0,0a.39.39,0,0,1,.52.3,23.27,23.27,0,0,1,1,6.61A22.69,22.69,0,0,1,53.1,46.55Z"/><path class="cls-2" d="M90.89,19.85a29.84,29.84,0,0,0-18,5.79.92.92,0,0,0-.2,1.29l5,5.93a.89.89,0,0,0,1.39.2,16.11,16.11,0,0,1,10.74-3.67c8,0,10.6,2.47,10.6,7.93v2.16a.52.52,0,0,1-.59.59H90.12C78.33,40.07,71,44.83,71,55.24c0,10,7.34,14.57,16.06,14.57,6.74,0,11.2-2.28,13.48-5.55h.1v3.47a.94.94,0,0,0,1,1H110a.94.94,0,0,0,1-1V36.62C110.94,24.92,105.47,19.85,90.89,19.85Zm9.54,32.81c0,5.45-3.76,8.13-10.6,8.13-5.36,0-8.23-2-8.23-5.95,0-4.46,3.17-6.44,10.31-6.44h7.93a.52.52,0,0,1,.59.59Z"/><path class="cls-2" d="M118.75,56.27a37.07,37.07,0,0,1-1.68-11.69,38.12,38.12,0,0,1,1.58-11.8c2.68-8.33,10-13.19,19.54-13.19,9.81,0,16.95,5.06,19.62,13.19,1.09,3.37,1.59,6.64,1.59,14.37a1,1,0,0,1-1.09,1H128.87a.52.52,0,0,0-.6.59,10.42,10.42,0,0,0,.7,3.67c1.58,4.66,5.35,7.24,10.7,7.24s8.82-2,11.2-4.57c.5-.49,1-.59,1.49-.19L158.21,60a.9.9,0,0,1,.1,1.39c-4.07,4.76-10.81,8.13-19.63,8.13C128.57,69.56,121.43,64.6,118.75,56.27ZM147.6,35.16c-1.29-3.87-4.85-6.15-9.32-6.15s-8.13,2.28-9.41,6.15a12,12,0,0,0-.6,4.06.53.53,0,0,0,.6.6H147.6a.53.53,0,0,0,.6-.6A12,12,0,0,0,147.6,35.16Z"/><path class="cls-2" d="M167.49,68.39a.93.93,0,0,1-1-1V21.6a.94.94,0,0,1,1-1h9.12a.94.94,0,0,1,1,1v4.06h.1c2.28-3.67,4.79-6.15,10.84-6.15a12.61,12.61,0,0,1,9.24,4c.49.5.59.89.2,1.39l-5.26,6.64a.91.91,0,0,1-1.39.2c-1.83-1.38-3-2.45-5.58-2.45-5.55,0-8.15,4.63-8.15,12.26V67.4a.94.94,0,0,1-1,1Z"/><rect class="cls-2" x="201.36" y="0.98" width="11.1" height="10.61" rx="0.99"/><rect class="cls-2" x="201.36" y="20.6" width="11.1" height="47.78" rx="0.99"/><path class="cls-2" d="M218.1,61.94a.94.94,0,0,1,0-1.38l5.65-6a1,1,0,0,1,1.39,0,22.13,22.13,0,0,0,14,5.45c5.85,0,8.82-2.38,8.82-5.65,0-2.87-1.69-4.66-7.93-5.25l-5.16-.5c-9.71-1-14.67-5.95-14.67-14.08,0-9.22,6.64-15.07,18.54-15.07a29,29,0,0,1,17.94,5.85,1,1,0,0,1,.2,1.39L252,32.6a1,1,0,0,1-1.38.2,23.13,23.13,0,0,0-12.5-4c-4.75,0-7.23,2.09-7.23,5s1.68,4.46,7.83,5.06l5.16.49c10,1,14.77,6.15,14.77,14,0,9.52-6.94,16.16-20,16.16C228.81,69.48,222.07,65.61,218.1,61.94Z"/><path class="cls-2" d="M260.35,64.87a3.76,3.76,0,1,1,3.77,3.77A3.68,3.68,0,0,1,260.35,64.87Zm6.93,0a3.17,3.17,0,1,0-3.16,3.2A3.09,3.09,0,0,0,267.28,64.87ZM262.87,67a.16.16,0,0,1-.18-.18V62.92a.16.16,0,0,1,.18-.18h1.54A1.19,1.19,0,0,1,265.74,64a1.09,1.09,0,0,1-.82,1.15l.82,1.64c.08.14,0,.2-.12.2h-.33a.22.22,0,0,1-.19-.14l-.82-1.62h-.88s-.06,0-.06,0v1.54a.17.17,0,0,1-.18.18Zm2.26-3c0-.41-.21-.66-.74-.66h-1s-.06,0-.06,0v1.23s0,0,.06,0h1C264.92,64.61,265.13,64.38,265.13,64Z"/><rect class="cls-3" x="289.04" y="11.58" width="1" height="69.31"/><path class="cls-2" d="M321.42,20.58h4.72V68.39h-4.72Z"/><path class="cls-2" d="M363.11,36.14q3.66,3.72,3.66,10.22v22h-4.65V47.46a10.93,10.93,0,0,0-2.8-7.94,10.42,10.42,0,0,0-7.8-2.87,12.15,12.15,0,0,0-8.86,3.42,14,14,0,0,0-3.8,9V68.39h-4.58V32.55h4.58v8.34a13.38,13.38,0,0,1,5.44-6.29A17.23,17.23,0,0,1,353,32.41Q359.46,32.41,363.11,36.14Z"/><path class="cls-2" d="M409.93,17.63V68.39h-4.58V60.18a15.09,15.09,0,0,1-5.75,6.26A16.39,16.39,0,0,1,391,68.66a17.48,17.48,0,0,1-9-2.32,16,16,0,0,1-6.16-6.5,20,20,0,0,1-2.19-9.44A19.36,19.36,0,0,1,375.83,41,16.43,16.43,0,0,1,382,34.6a17.21,17.21,0,0,1,8.93-2.33,16.34,16.34,0,0,1,8.65,2.26,15.29,15.29,0,0,1,5.78,6.29V17.63ZM398.78,62.88a12.75,12.75,0,0,0,4.82-5,15,15,0,0,0,1.75-7.32,15.23,15.23,0,0,0-1.75-7.35,13,13,0,0,0-4.82-5.09A13.47,13.47,0,0,0,380,43.18a16.12,16.12,0,0,0,0,14.67,12.65,12.65,0,0,0,4.86,5,13.64,13.64,0,0,0,7,1.81A13.47,13.47,0,0,0,398.78,62.88Z"/><path class="cls-2" d="M422.65,19.93a3.12,3.12,0,0,1,.89,2.29,3.24,3.24,0,0,1-.92,2.32,3,3,0,0,1-2.22,1,3.06,3.06,0,0,1-2.3-1,3.24,3.24,0,0,1-.92-2.32A3.16,3.16,0,0,1,420.4,19,3,3,0,0,1,422.65,19.93Zm-4.58,12.62h4.58V68.39h-4.58Z"/><path class="cls-2" d="M454.6,68.39l-.07-6A13,13,0,0,1,449,67.05a19,19,0,0,1-7.87,1.54,13.86,13.86,0,0,1-6.39-1.4,10.3,10.3,0,0,1-4.28-3.86,10.46,10.46,0,0,1-1.5-5.54,8.59,8.59,0,0,1,3.59-7.32q3.58-2.67,9.88-2.67h12V45.06a8.49,8.49,0,0,0-2.53-6.56q-2.54-2.32-7.39-2.33-5.75,0-11.56,4.31l-2.05-3.15a30.45,30.45,0,0,1,6.91-3.72,21.81,21.81,0,0,1,7.52-1.2q6.5,0,10.06,3.25t3.62,9l.07,23.74Zm-4.55-5.85a10.93,10.93,0,0,0,4.48-6.26V51.36H443q-4.73,0-7.18,1.57a5.22,5.22,0,0,0-2.47,4.72,6.37,6.37,0,0,0,2.36,5.16,9.53,9.53,0,0,0,6.26,2A14.26,14.26,0,0,0,450.05,62.54Z"/><rect class="cls-4" width="460" height="82"/></svg>